# xmcd
#
# Track frame offsets:
#	150
#	16745
#	35217
#	50065
#	63282
#	82775
#	95552
#	113865
#	134727
#	154250
#	173490
#	183452
#	197272
#	213372
#	229880
#	247952
#	266670
#
# Disc length: 3832 seconds
#
# Revision: 0
# Processed by: cddbd v1.4PL0 Copyright (c) Steve Scherf et al.
# Submitted via: audiograbber 1.80
#
DISCID=e60ef611
DTITLE=Enrico Caruso - Complete Recordings Vol.9
DYEAR=1900
DGENRE=
TTITLE0=O soave fanciulla
TTITLE1=On I'appellle Manon
TTITLE2=Dio, che nell'alma infodere
TTITLE3=Pimipinella
TTITLE4=Ai nostri monti ritorneremo
TTITLE5=Donna non vidi mai simile a questa
TTITLE6=Agnus dei
TTITLE7=Parmi veder le lagrime
TTITLE8=Ave Maria
TTITLE9=Elegie
TTITLE10=Your Eyes have told me that i did not know
TTITLE11=Lasciati amar
TTITLE12=Guardann''a Luna
TTITLE13=Fenesta che lucive
TTITLE14=Addio alla Madre
TTITLE15=Les Rameaux
TTITLE16=Cujus animam
EXTD=
EXTT0=
EXTT1=
EXTT2=
EXTT3=
EXTT4=
EXTT5=
EXTT6=
EXTT7=
EXTT8=
EXTT9=
EXTT10=
EXTT11=
EXTT12=
EXTT13=
EXTT14=
EXTT15=
EXTT16=
PLAYORDER=
